<svg xmlns="http://www.w3.org/2000/svg" viewBox="0 0 1024 1024" width="1024" height="1024" role="img" aria-label="Radia icon — radiant glow">
  <defs>
    <linearGradient id="bg" x1="0.12" y1="0" x2="0.9" y2="1">
      <stop offset="0" stop-color="#F2A271"/>
      <stop offset="0.5" stop-color="#E2714D"/>
      <stop offset="1" stop-color="#A83E24"/>
    </linearGradient>
    <radialGradient id="sheen" cx="0.5" cy="0.14" r="0.7">
      <stop offset="0" stop-color="#FFF7EF" stop-opacity="0.5"/>
      <stop offset="0.6" stop-color="#FFF7EF" stop-opacity="0"/>
    </radialGradient>
    <radialGradient id="vig" cx="0.5" cy="0.56" r="0.75">
      <stop offset="0.55" stop-color="#6E2614" stop-opacity="0"/>
      <stop offset="1" stop-color="#6E2614" stop-opacity="0.42"/>
    </radialGradient>
    <radialGradient id="bloom" cx="0.5" cy="0.5" r="0.5">
      <stop offset="0" stop-color="#FFEAD9" stop-opacity="0.95"/>
      <stop offset="0.5" stop-color="#FCCAA8" stop-opacity="0.4"/>
      <stop offset="1" stop-color="#FCCAA8" stop-opacity="0"/>
    </radialGradient>
    <linearGradient id="rayg" x1="0.5" y1="1" x2="0.5" y2="0">
      <stop offset="0" stop-color="#FFFFFF" stop-opacity="0.9"/>
      <stop offset="1" stop-color="#FFE6D3" stop-opacity="0"/>
    </linearGradient>
    <radialGradient id="orb" cx="0.4" cy="0.34" r="0.82">
      <stop offset="0" stop-color="#FFFFFF"/>
      <stop offset="0.22" stop-color="#FFF7F0"/>
      <stop offset="0.5" stop-color="#FFE0C9"/>
      <stop offset="0.78" stop-color="#F09F70"/>
      <stop offset="1" stop-color="#C8552F"/>
    </radialGradient>
    <radialGradient id="shadow" cx="0.5" cy="0.5" r="0.5">
      <stop offset="0" stop-color="#54200F" stop-opacity="0.5"/>
      <stop offset="1" stop-color="#54200F" stop-opacity="0"/>
    </radialGradient>
    <radialGradient id="spec" cx="0.5" cy="0.5" r="0.5">
      <stop offset="0" stop-color="#FFFFFF" stop-opacity="0.92"/>
      <stop offset="1" stop-color="#FFFFFF" stop-opacity="0"/>
    </radialGradient>
  </defs>

  <rect width="1024" height="1024" rx="229" fill="url(#bg)"/>
  <rect width="1024" height="1024" rx="229" fill="url(#vig)"/>
  <rect width="1024" height="1024" rx="229" fill="url(#sheen)"/>

  <ellipse cx="512" cy="726" rx="214" ry="70" fill="url(#shadow)"/>
  <circle cx="512" cy="498" r="312" fill="url(#bloom)"/>

  <g transform="translate(512 498)" fill="url(#rayg)">
    <path d="M0 -360 C13 -357 21 -344 21 -322 L13 -208 Q0 -200 -13 -208 L-21 -322 C-21 -344 -13 -357 0 -360 Z"/>
    <path d="M0 -360 C13 -357 21 -344 21 -322 L13 -208 Q0 -200 -13 -208 L-21 -322 C-21 -344 -13 -357 0 -360 Z" transform="rotate(30)"/>
    <path d="M0 -360 C13 -357 21 -344 21 -322 L13 -208 Q0 -200 -13 -208 L-21 -322 C-21 -344 -13 -357 0 -360 Z" transform="rotate(60)"/>
    <path d="M0 -360 C13 -357 21 -344 21 -322 L13 -208 Q0 -200 -13 -208 L-21 -322 C-21 -344 -13 -357 0 -360 Z" transform="rotate(90)"/>
    <path d="M0 -360 C13 -357 21 -344 21 -322 L13 -208 Q0 -200 -13 -208 L-21 -322 C-21 -344 -13 -357 0 -360 Z" transform="rotate(120)"/>
    <path d="M0 -360 C13 -357 21 -344 21 -322 L13 -208 Q0 -200 -13 -208 L-21 -322 C-21 -344 -13 -357 0 -360 Z" transform="rotate(150)"/>
    <path d="M0 -360 C13 -357 21 -344 21 -322 L13 -208 Q0 -200 -13 -208 L-21 -322 C-21 -344 -13 -357 0 -360 Z" transform="rotate(180)"/>
    <path d="M0 -360 C13 -357 21 -344 21 -322 L13 -208 Q0 -200 -13 -208 L-21 -322 C-21 -344 -13 -357 0 -360 Z" transform="rotate(210)"/>
    <path d="M0 -360 C13 -357 21 -344 21 -322 L13 -208 Q0 -200 -13 -208 L-21 -322 C-21 -344 -13 -357 0 -360 Z" transform="rotate(240)"/>
    <path d="M0 -360 C13 -357 21 -344 21 -322 L13 -208 Q0 -200 -13 -208 L-21 -322 C-21 -344 -13 -357 0 -360 Z" transform="rotate(270)"/>
    <path d="M0 -360 C13 -357 21 -344 21 -322 L13 -208 Q0 -200 -13 -208 L-21 -322 C-21 -344 -13 -357 0 -360 Z" transform="rotate(300)"/>
    <path d="M0 -360 C13 -357 21 -344 21 -322 L13 -208 Q0 -200 -13 -208 L-21 -322 C-21 -344 -13 -357 0 -360 Z" transform="rotate(330)"/>
  </g>

  <circle cx="512" cy="498" r="196" fill="url(#orb)"/>
  <ellipse cx="446" cy="430" rx="74" ry="52" fill="url(#spec)" transform="rotate(-28 446 430)"/>
  <ellipse cx="566" cy="592" rx="30" ry="18" fill="url(#spec)" opacity="0.5" transform="rotate(-28 566 592)"/>
</svg>
