<svg xmlns="http://www.w3.org/2000/svg" viewBox="0 0 1024 1024" width="1024" height="1024" role="img" aria-label="Radia app icon — glow orb with scan arcs">
  <defs>
    <linearGradient id="bg" x1="0.1" y1="0" x2="0.9" y2="1">
      <stop offset="0" stop-color="#F3A985"/>
      <stop offset="0.5" stop-color="#E2714D"/>
      <stop offset="1" stop-color="#B0432A"/>
    </linearGradient>
    <radialGradient id="vig" cx="0.5" cy="0.5" r="0.72">
      <stop offset="0.58" stop-color="#8F3520" stop-opacity="0"/>
      <stop offset="1" stop-color="#8F3520" stop-opacity="0.34"/>
    </radialGradient>
    <radialGradient id="topglow" cx="0.5" cy="0.28" r="0.7">
      <stop offset="0" stop-color="#FFF7EF" stop-opacity="0.5"/>
      <stop offset="0.6" stop-color="#FFF7EF" stop-opacity="0"/>
    </radialGradient>
    <radialGradient id="coreGlow" cx="0.5" cy="0.5" r="0.5">
      <stop offset="0" stop-color="#FFF7EF" stop-opacity="0.95"/>
      <stop offset="1" stop-color="#FFF7EF" stop-opacity="0"/>
    </radialGradient>
    <radialGradient id="core" cx="0.42" cy="0.37" r="0.72">
      <stop offset="0" stop-color="#FFFFFF"/>
      <stop offset="0.55" stop-color="#FFF1E4"/>
      <stop offset="1" stop-color="#F9CFB4"/>
    </radialGradient>
  </defs>

  <rect width="1024" height="1024" rx="229" fill="url(#bg)"/>
  <rect width="1024" height="1024" rx="229" fill="url(#vig)"/>
  <rect width="1024" height="1024" rx="229" fill="url(#topglow)"/>

  <g fill="none" stroke-linecap="round">
    <path d="M377 673 A210 210 0 1 1 647 673" stroke="#EE9B79" stroke-width="30" opacity="0.9"/>
    <path d="M405 639 A166 166 0 1 1 619 639" stroke="#FCE7DC" stroke-width="27" opacity="0.92"/>
    <path d="M434 605 A122 122 0 1 1 590 605" stroke="#FFFFFF" stroke-width="24" opacity="0.95"/>
  </g>

  <circle cx="512" cy="500" r="150" fill="url(#coreGlow)"/>
  <circle cx="512" cy="500" r="96" fill="url(#core)"/>
  <ellipse cx="486" cy="476" rx="34" ry="26" fill="#FFFFFF" opacity="0.45"/>
</svg>
