<svg xmlns="http://www.w3.org/2000/svg" viewBox="0 0 1024 1024" width="1024" height="1024" role="img" aria-label="Radia app icon — radiant aperture">
  <defs>
    <linearGradient id="bg" x1="0.1" y1="0" x2="0.9" y2="1">
      <stop offset="0" stop-color="#F3A985"/>
      <stop offset="0.5" stop-color="#E2714D"/>
      <stop offset="1" stop-color="#B0432A"/>
    </linearGradient>
    <radialGradient id="vig" cx="0.5" cy="0.5" r="0.72">
      <stop offset="0.58" stop-color="#8F3520" stop-opacity="0"/>
      <stop offset="1" stop-color="#8F3520" stop-opacity="0.34"/>
    </radialGradient>
    <radialGradient id="topglow" cx="0.5" cy="0.28" r="0.7">
      <stop offset="0" stop-color="#FFF7EF" stop-opacity="0.5"/>
      <stop offset="0.6" stop-color="#FFF7EF" stop-opacity="0"/>
    </radialGradient>
    <linearGradient id="ray" x1="0.5" y1="0" x2="0.5" y2="1">
      <stop offset="0" stop-color="#FFFFFF" stop-opacity="0.96"/>
      <stop offset="1" stop-color="#FFE0C8" stop-opacity="0.82"/>
    </linearGradient>
    <radialGradient id="coreGlow" cx="0.5" cy="0.5" r="0.5">
      <stop offset="0" stop-color="#FFF7EF" stop-opacity="0.95"/>
      <stop offset="1" stop-color="#FFF7EF" stop-opacity="0"/>
    </radialGradient>
    <radialGradient id="core" cx="0.42" cy="0.37" r="0.72">
      <stop offset="0" stop-color="#FFFFFF"/>
      <stop offset="0.55" stop-color="#FFF1E4"/>
      <stop offset="1" stop-color="#F9CFB4"/>
    </radialGradient>
  </defs>

  <rect width="1024" height="1024" rx="229" fill="url(#bg)"/>
  <rect width="1024" height="1024" rx="229" fill="url(#vig)"/>
  <rect width="1024" height="1024" rx="229" fill="url(#topglow)"/>

  <g transform="translate(512 512)" fill="url(#ray)">
    <path d="M0 -300 C12 -298 20 -286 20 -268 L13 -176 Q0 -166 -13 -176 L-20 -268 C-20 -286 -12 -298 0 -300 Z"/>
    <path d="M0 -300 C12 -298 20 -286 20 -268 L13 -176 Q0 -166 -13 -176 L-20 -268 C-20 -286 -12 -298 0 -300 Z" transform="rotate(30)"/>
    <path d="M0 -300 C12 -298 20 -286 20 -268 L13 -176 Q0 -166 -13 -176 L-20 -268 C-20 -286 -12 -298 0 -300 Z" transform="rotate(60)"/>
    <path d="M0 -300 C12 -298 20 -286 20 -268 L13 -176 Q0 -166 -13 -176 L-20 -268 C-20 -286 -12 -298 0 -300 Z" transform="rotate(90)"/>
    <path d="M0 -300 C12 -298 20 -286 20 -268 L13 -176 Q0 -166 -13 -176 L-20 -268 C-20 -286 -12 -298 0 -300 Z" transform="rotate(120)"/>
    <path d="M0 -300 C12 -298 20 -286 20 -268 L13 -176 Q0 -166 -13 -176 L-20 -268 C-20 -286 -12 -298 0 -300 Z" transform="rotate(150)"/>
    <path d="M0 -300 C12 -298 20 -286 20 -268 L13 -176 Q0 -166 -13 -176 L-20 -268 C-20 -286 -12 -298 0 -300 Z" transform="rotate(180)"/>
    <path d="M0 -300 C12 -298 20 -286 20 -268 L13 -176 Q0 -166 -13 -176 L-20 -268 C-20 -286 -12 -298 0 -300 Z" transform="rotate(210)"/>
    <path d="M0 -300 C12 -298 20 -286 20 -268 L13 -176 Q0 -166 -13 -176 L-20 -268 C-20 -286 -12 -298 0 -300 Z" transform="rotate(240)"/>
    <path d="M0 -300 C12 -298 20 -286 20 -268 L13 -176 Q0 -166 -13 -176 L-20 -268 C-20 -286 -12 -298 0 -300 Z" transform="rotate(270)"/>
    <path d="M0 -300 C12 -298 20 -286 20 -268 L13 -176 Q0 -166 -13 -176 L-20 -268 C-20 -286 -12 -298 0 -300 Z" transform="rotate(300)"/>
    <path d="M0 -300 C12 -298 20 -286 20 -268 L13 -176 Q0 -166 -13 -176 L-20 -268 C-20 -286 -12 -298 0 -300 Z" transform="rotate(330)"/>
  </g>

  <circle cx="512" cy="512" r="208" fill="url(#coreGlow)"/>
  <circle cx="512" cy="512" r="150" fill="url(#core)"/>
  <ellipse cx="470" cy="462" rx="52" ry="38" fill="#FFFFFF" opacity="0.45"/>
</svg>
